<svg xmlns="http://www.w3.org/2000/svg" width="862" height="872" fill="none"><path fill="#000" d="M391 870.5c-37.7-4.2-73.8-12-108.8-25.3a439 439 0 0 1-167.3-113 421 421 0 0 1-89-145.7 443 443 0 0 1-7.4-276 427 427 0 0 1 118.8-194.2A422 422 0 0 1 406.8.8a425 425 0 0 1 149.5 17.8 422 422 0 0 1 184.3 113c65.6 67.6 103.5 149 116.8 242.2q14.8 103.5-17.6 202.9c-19.5 60-50.2 113.3-96 157.2-44 42.1-96.5 64-157 63.7a202 202 0 0 1-168.6-85.7 166 166 0 0 1-32.6-122.5c7.6-58.6 37.8-102.3 94.8-121.8 48-16.5 91.6-5.6 126.9 31.6 36.1 38 34.1 100.2-3.5 133.8a68 68 0 0 1-72.5 14.6 66 66 0 0 1-44.7-52.3c-4.6-25 9-48.4 31.3-54.5 19.3-5.2 38.6 4.2 43 21 2.5 9.5-1.4 20.2-8.6 23.3-1-2 .6-3.3 1.5-4.6 9.4-13.5-4.4-29-17-29.3a31.5 31.5 0 0 0-31.9 27.3 47 47 0 0 0 54.9 51.1c33.6-6.4 54.4-39.4 48.5-75.5-6.4-38.4-41-67.8-80-71-50.4-4-97.2 34.7-106.4 87.2a144 144 0 0 0 61.7 140c51.8 33.9 104.7 31.6 156.3.6 46.9-28.1 72.5-71.8 78.6-125.6C724.8 530 706.4 482.2 668 442a203 203 0 0 0-57-40.2c-6.6-3.4-6.6-4-2.3-10.1a354 354 0 0 1 94.9-91.5q36.6-24 79.2-34.6l5.7-1.4q5.6-1.3 3-6.7a384 384 0 0 0-51.4-78.2c-3-3.3-5.8-4.3-10.2-3-31.3 8.6-58.2 25-82.5 46.1-28.7 25.1-50.6 55.7-69.7 88.5a548 548 0 0 0-31.7 63.5c-2.7 6.5-6.2 9.4-13 8.3-2.8-.4-5.7.7-8.8-1.2.6-8 4-15.2 7.4-22.3a658 658 0 0 1 56-100.6c24.4-34.8 53.2-65 91.8-84.4q16.6-8.2 34.9-11.7c2.6-.5 5.6-.4 7.8-2.7 0-3-2.4-4.6-4.1-6.4a359 359 0 0 0-51-43.3 16 16 0 0 0-16.3-2.2c-43.5 14.8-74.6 44.3-97.8 83.1-20 33.2-32.9 69.4-44.4 106.2q-12.3 40.1-21.4 81.2c-.7 2.9-.5 6.5-3.4 8.2-3.3 2-7.5 3.9-11 2.5-4-1.5-1.2-5.9-.8-8.7a588 588 0 0 1 53.6-182.9 219 219 0 0 1 62.5-78.8c13.7-10.5 29-18 45.2-23.6 1.4-.4 3-.5 3.9-2.6-1.3-3-4.4-4.3-7-5.8a489 489 0 0 0-52.6-25.3 12 12 0 0 0-8.9 0 138 138 0 0 0-68.2 47.4c-24.6 30-38 65.4-46.1 103A951 951 0 0 0 437 353.4l-2.5 44.3q-.1 3.3-1.2 6.3c-.9 2.2-3 3.3-5.2 3.2-2.6-.1-2.7-2.5-3-4.4a584 584 0 0 1-3.1-92.5 669 669 0 0 1 12.3-102.7c9.6-45.9 23.9-89.6 58-123.8A189 189 0 0 1 535 53.4c1.7-1 3.8-1.5 3.5-4-.3-2-2.2-2.6-3.8-3a327 327 0 0 0-48.9-9.5c-18.3-1.8-33.4 5.3-47.1 16.2a154 154 0 0 0-41.9 54c-18.1 37-24.3 76.3-24.4 117a877 877 0 0 0 13.8 155.7c2.6 15 4.5 30 6.8 45 .7 4.4.4 8.3-4.4 10.5-3.6-1.5-4-5-4.9-8a673 673 0 0 1-21.8-94.5q-10.1-57.6-9.5-116c.3-30.9 3.2-61.5 13.5-90.6 11.8-33.6 29.7-63.7 58.3-86l4.5-3.9q.6-.7.8-1.5c-.2-1.6-1.3-1.9-2.4-1.9A222 222 0 0 0 377 38a75 75 0 0 0-35.8 21.2 169 169 0 0 0-50.4 107.2 338 338 0 0 0 9.2 108c14.2 63 37.4 123.3 57.7 184.5 1.4 4 3.2 8-2.9 9.9-3-1.5-3.7-4.7-5-7.3A941 941 0 0 1 302.1 353c-14.5-41-26-83-31-126.3a258 258 0 0 1 6.7-99c7.5-26.9 20-51.2 39.4-71.7 1.3-1.4 3-2.6 3.3-5-2.5-1.8-5-.4-7.1.4-18.7 6.8-37.6 13-55.5 21.8q-12.4 6.2-20.4 17.5c-26.3 37-34.6 78.4-29.9 123.1 5 47.3 22.8 90.3 42.5 132.8 23.6 51 52 99.2 81.2 147q2.2 3.7 4 7.4 1.5 3.1-1 5.4c-2 1.6-3.6 0-5-1.4-6.1-6.4-11.2-13.7-16.6-20.8a803 803 0 0 1-76.2-119.5c-16-31.6-30-64.2-39.1-98.5-12.3-45.9-16.1-92-.6-138 3-9 7.1-17.6 11-26.2l-1.2-1.2q-10.9 7.9-21.5 16.1c-7.4 6-14.3 12.6-21.6 18.7a77 77 0 0 0-25.5 40.6c-5.5 20-9.2 40.4-7.4 61.2a261 261 0 0 0 26.3 90.2c24.2 50.8 59 94.3 94.4 137.5a2235 2235 0 0 0 64.2 73.5c2.2 2.5 5 5.1 1.5 9.1-4-.6-6.7-3.6-9.5-6a829 829 0 0 1-111-114 437 437 0 0 1-72.1-125.2 215 215 0 0 1-10.9-106c.3-1.7 1.2-3.7-.2-5.6-2.7 1.3-4 4-5.6 6.2A565 565 0 0 0 79 242.7c-13.6 23.2-13.6 47.8-8.6 72.7 7.3 36.4 27.3 66.4 49.2 95.2 31.3 41.2 69.8 75.2 109.4 108 22.7 18.7 45.1 37.8 69 55 5.7 4.1 12 8.3 15.9 15-3.4 2.2-5.6-.1-7.7-1.2a554 554 0 0 1-82.5-52.5 713 713 0 0 1-95-82.6c-25-26.4-47.7-54.5-61.9-88.6a203 203 0 0 1-12.3-43.2c-.4-2.2-.4-4.7-2.5-7.3-4 9.6-6.5 19.2-8.7 28.8-5.6 24-7.2 48.3.6 72q12.7 39 41.1 68.8c25.7 26.8 55.9 47.8 87 67.4 42.5 26.7 88.2 46.9 133.3 68.3 2.5 1.2 5.4 1.9 5.7 5.8-4.3 3-8.7 1-12.7-.5-23.8-8.4-47.8-16.2-71-26.7a628 628 0 0 1-98.1-52.6A332 332 0 0 1 57 479.6 145 145 0 0 1 38.7 449c-1-2.2-1.7-4.8-4.1-6.7-2.4 2.6-1.6 5.6-1.5 8.2 2.5 68 35.2 116.4 95.5 145.6 45.5 22 93.5 37 142.2 50.2 11.2 3 22.4 6.2 34 7.8q3.5.7 6.8 1.8c1.7.6 3.3 1.6 3 3.8s-2 2.7-3.8 2.7c-5-.1-10 0-14.9-.6-56-7.8-110.8-20.5-162.6-44-24.6-11.2-48.7-23.4-67.9-43.5-4-4.1-6.7-9.5-11.7-12.6-1.7 1.1-1.3 2.6-1 3.7 6.8 20.2 13.9 40.4 28 57 17.7 21 41.2 33 66.8 41.6a483 483 0 0 0 76.3 17q44.4 7.4 89.4 8.5c3.5 0 9.6-1.6 9.7 3.4.2 4.9-6 3.8-9.5 4.3-26.5 3.2-53 2.5-79.6 1a338 338 0 0 1-90.7-16.8c-12.5-4.2-24.3-10-35.9-16.2q-.8 1.2-.8 1.5c11.5 18.2 23.4 36.3 43.8 45.7q26 12 54.8 14.4c39.6 3.4 78.8-.5 118-6 4.1-.5 8.5-1.6 12.7 1-1 4.2-4.4 4.7-7.3 5.7a258 258 0 0 1-60.7 12.5c-27.5 2.9-55 5.5-82.6.7l-15.9-2.9-.7.7c1.9 3.5 5.3 5.4 8.1 8A197 197 0 0 0 204 766q7.5 4.7 16.5 5.2c25 1.7 49.3-3.3 73.6-8.7 17.3-3.7 34.7-7 51.1-14 2.3-1 5.4-2.3 6.7 1.1 1.1 3-1.8 4.2-3.7 5.3-11.9 7-24.8 11.2-37.8 15.4-21.8 7-43.6 14-66.6 15.9-1.3 0-2.6.3-4 2.2 4.6 4.2 10.5 6.3 15.6 9.5a46 46 0 0 0 37.3 5.3 257 257 0 0 0 37.6-12c11-4.6 21.7-9.8 32.5-14.7 2.7-1.2 5.4-2.8 8.4-.7 1 3.2-1.4 4.4-3.3 5.7a329 329 0 0 1-55.6 31.9c-2.4 1-5 1.5-6.2 4.1 7.1 7.3 26 10.7 35.6 6a287 287 0 0 0 42.4-23.7c2.2-1.2 4.6-3.8 6.9-1.2 2.5 3-.5 5.4-2.2 7.3-6.5 7.3-14.5 13-22.3 18.8-2.4 1.8-5.1 3.3-6.4 6.3 5.7 4.8 20.6 6.3 26.5 2.4l20.8-14.3c2.2-1.5 4.5-3.3 7-.8 2.7 2.8-.2 4.7-1.5 6.7-3 4.5-7.4 7.8-10 14.2q41 3.4 80.4-1.9l.2-1.9c-8.5-3.9-17.3-7.4-25.6-11.8-66.8-35.8-109.6-90.5-125-165.4-10-49.6-5-98 18.4-143.4 28.9-56 72.7-94.4 135.7-105.8 61-11 115.7 4.3 160 49 37 37.4 52 83.2 42.8 136A136 136 0 0 1 580 703.6c-52.9 9-104.8-16.5-126.5-63-15.2-32.6-17.3-65.5 2.3-97.3 29.5-48 93.3-52.6 124.3-17 23.7 27.3 21.5 64-1.4 83.8a42 42 0 0 1-58.1-1.3c-11.3-12-12.2-30.4-1.7-41.4 4.9-5.1 11-8 18.4-6.4-.2 3.2-2.4 2.9-3.8 3.2-8.2 2-12.4 8-13.9 15.6-1.4 7.2 2.1 13 7.7 17.6 9.4 7.5 23 7.7 33.3.5 19-13.5 19.6-37.8 6.3-54-23-28.2-64.1-26.2-87.6 3.7-23.4 29.6-21 66.2 4 98.4 31.6 40.7 95.2 42.9 135.3 8.7a119.4 119.4 0 0 0 24-150.6c-26-44.5-65.4-65.7-115.9-68-76.4-3.4-137.3 51.2-155.6 118.3-19.5 71.3-2 134.9 46 189.7a213 213 0 0 0 132.7 71c38 5.7 75.3 1 111.3-13.3 2-.9 4-2.9 8.3-.4-85.4 55.9-178.1 76.7-278.4 69"/></svg>