<svg version="1.1" id="Layer_1" xmlns="http://www.w3.org/2000/svg" xmlns:xlink="http://www.w3.org/1999/xlink" x="0px" y="0px"
	 width="100%" viewBox="0 0 1024 1024" enable-background="new 0 0 1024 1024" xml:space="preserve">



<path fill="#000" opacity="1.000000" stroke="none" 
	d="
M454.441559,818.792969 
	C425.406982,815.589966 397.496582,809.546387 370.519104,799.451233 
	C320.615967,780.777283 277.817596,751.502136 241.365692,712.797668 
	C210.802643,680.345886 187.987778,643.104736 172.723587,601.229309 
	C161.940262,571.646545 155.573914,541.201477 153.456421,509.726501 
	C150.707764,468.869843 155.313385,428.980774 166.997849,389.818573 
	C184.240128,332.028564 214.460266,282.118988 258.650604,241.058456 
	C289.297333,212.582245 323.961487,190.117722 363.149200,174.900436 
	C396.490784,161.953323 431.021240,154.844330 466.668579,152.608139 
	C505.977051,150.142258 544.337280,155.062393 582.029419,166.261597 
	C637.088501,182.620895 684.274658,211.920349 724.293701,252.836929 
	C774.930481,304.609314 804.215942,366.903442 814.454224,438.353271 
	C822.023804,491.178864 817.474365,543.067993 800.884949,593.712830 
	C785.822998,639.695007 762.124329,680.551331 726.721558,714.164429 
	C692.740723,746.427368 652.273315,763.250244 605.611206,762.934448 
	C551.789795,762.570312 507.785126,740.592163 475.475281,697.308533 
	C454.819000,669.636597 445.788452,637.629028 450.273560,603.483704 
	C456.169861,558.594604 479.480438,525.104553 523.484985,510.144714 
	C560.518188,497.554810 594.153625,505.884216 621.406677,534.394470 
	C649.277222,563.550659 647.754333,611.116455 618.706482,636.852600 
	C602.401794,651.298462 583.296753,655.361511 562.793091,648.023315 
	C544.097717,641.332397 531.995605,627.923767 528.282104,607.968323 
	C524.724060,588.848328 535.247620,570.933899 552.417725,566.280640 
	C567.302551,562.246643 582.195801,569.458130 585.618713,582.356995 
	C587.540710,589.599792 584.515991,597.773438 578.991577,600.194458 
	C578.222168,598.637878 579.455994,597.635986 580.146912,596.647034 
	C587.392212,586.276611 576.731445,574.463745 567.063354,574.187256 
	C554.869202,573.838562 544.070557,582.847412 542.419617,595.161743 
	C539.293823,618.476807 561.570068,638.691895 584.745483,634.276611 
	C610.687805,629.334167 626.775330,604.047546 622.156921,576.435608 
	C617.235352,547.011169 590.478516,524.492004 560.433655,522.118042 
	C521.530579,519.044312 485.458344,548.605713 478.303955,588.831177 
	C471.303619,628.190430 490.856262,673.422791 525.914490,696.128662 
	C565.929077,722.044495 606.720825,720.314575 646.596680,696.561279 
	C682.756714,675.021423 702.558777,641.542725 707.263672,600.307251 
	C712.094482,557.968323 697.890869,521.349121 668.270447,490.612732 
	C655.569702,477.433533 640.498230,467.902740 624.309570,459.818878 
	C619.210876,457.272858 619.195251,456.748535 622.533142,452.108246 
	C642.600525,424.211060 666.919556,400.677338 695.726318,381.981995 
	C714.561462,369.758118 734.983887,360.841064 756.875610,355.495331 
	C758.331543,355.139801 759.794800,354.812225 761.242432,354.425568 
	C764.112427,353.659119 765.007019,352.102325 763.515869,349.283752 
	C752.271729,328.029755 740.052979,307.434631 723.914734,289.408508 
	C721.639099,286.866730 719.440735,286.111603 716.041382,287.044373 
	C691.917603,293.663727 671.109802,306.193634 652.381958,322.444153 
	C630.217957,341.676361 613.327881,365.108887 598.567383,390.243408 
	C589.362000,405.918549 581.207031,422.128967 574.120422,438.840820 
	C572.007141,443.824463 569.311462,446.040833 564.020630,445.235748 
	C561.928345,444.917358 559.692017,445.766693 557.263062,444.280212 
	C557.776367,438.220459 560.412292,432.662079 562.973999,427.194061 
	C575.491943,400.473816 589.171326,374.350983 606.188660,350.190552 
	C625.012085,323.465973 647.305176,300.312317 677.063293,285.496887 
	C685.589600,281.251984 694.609192,278.339020 703.993103,276.547760 
	C706.035156,276.157898 708.361450,276.231079 709.986206,274.447784 
	C709.978333,272.103088 708.174866,270.928864 706.823975,269.550079 
	C694.778137,257.255341 681.616150,246.299118 667.503235,236.434570 
	C663.417847,233.578918 659.678101,233.100235 654.935852,234.701691 
	C621.365662,246.038162 597.373779,268.684937 579.411804,298.400085 
	C564.049805,323.813995 554.040955,351.533997 545.186401,379.708252 
	C538.747192,400.197174 533.423828,420.987061 528.622986,441.915741 
	C528.114014,444.134888 528.221863,446.903198 526.034668,448.186981 
	C523.475281,449.689178 520.232361,451.166382 517.541321,450.148743 
	C514.421936,448.969177 516.590210,445.616455 516.877808,443.477661 
	C523.445007,394.643890 536.338562,347.660858 558.288025,303.356934 
	C569.992432,279.732330 585.432251,259.111359 606.504639,242.992218 
	C617.065552,234.913818 628.870483,229.200317 641.416321,224.942886 
	C642.497253,224.576080 643.758667,224.544601 644.398987,222.886444 
	C643.396545,220.639664 641.013000,219.642319 638.945251,218.457733 
	C625.911133,210.990387 612.184326,204.959305 598.379456,199.096024 
	C596.094849,198.125702 593.925415,198.356827 591.580627,199.044357 
	C570.016174,205.367493 552.993103,218.303177 538.915527,235.383362 
	C519.914124,258.437531 509.593048,285.499268 503.291473,314.296326 
	C495.475006,350.016235 492.357635,386.329559 490.007874,422.726318 
	C489.278717,434.020233 488.721283,445.325195 488.023499,456.621307 
	C487.922211,458.260712 487.720825,459.977234 487.120239,461.480011 
	C486.462677,463.125366 484.816284,463.987732 483.070465,463.898224 
	C481.074768,463.795898 480.997070,461.963257 480.839874,460.523468 
	C478.268585,436.972717 477.163055,413.365448 478.365784,389.684723 
	C479.709290,363.232391 482.474274,336.922363 487.908173,310.990845 
	C495.266174,275.877289 506.315369,242.394791 532.651001,216.166504 
	C542.321106,206.535797 553.769165,199.460129 565.577820,192.880569 
	C566.891052,192.148911 568.565369,191.710800 568.303040,189.813293 
	C568.091858,188.285217 566.643799,187.815643 565.345825,187.488876 
	C552.915955,184.359436 540.465576,181.474869 527.642151,180.220154 
	C513.500610,178.836502 501.873779,184.296494 491.257874,192.632263 
	C477.098053,203.750702 466.927460,218.096024 458.976776,234.084961 
	C444.944489,262.304138 440.164551,292.498657 440.086670,323.668365 
	C439.986572,363.737579 443.680298,403.462067 450.733826,442.901337 
	C452.783325,454.361145 454.272369,465.920959 456.039703,477.431610 
	C456.555054,480.788177 456.303436,483.771576 452.591736,485.409790 
	C449.853455,484.292572 449.576294,481.563171 448.840179,479.328278 
	C441.059601,455.705444 436.270844,431.365845 431.998810,406.933411 
	C426.858215,377.533478 424.289703,347.898041 424.650330,318.017853 
	C424.935364,294.400665 427.154755,270.944885 435.067749,248.665710 
	C444.214844,222.911987 458.017273,199.858871 480.131165,182.730087 
	C481.313782,181.814041 482.443298,180.823166 483.537109,179.802399 
	C483.870270,179.491440 484.000671,178.963211 484.165222,178.647247 
	C483.995575,177.411545 483.145203,177.218765 482.317627,177.214066 
	C469.291870,177.139954 456.390167,178.194931 443.650208,181.106064 
	C432.696991,183.608887 423.915558,189.638519 416.052948,197.338821 
	C392.993195,219.922592 380.365143,247.398117 377.166901,279.423615 
	C374.368256,307.447784 378.034271,334.855865 384.207458,362.115662 
	C395.160706,410.483521 413.130890,456.624542 428.782928,503.502258 
	C429.817383,506.600433 431.239380,509.663635 426.565460,511.085144 
	C424.194580,509.937378 423.646667,507.493347 422.630219,505.483856 
	C408.940491,478.419830 396.077881,450.939697 385.915710,422.367065 
	C374.749664,390.971802 365.855255,358.876770 362.068634,325.631714 
	C359.160400,300.098663 360.211517,274.665039 367.177002,249.838196 
	C372.958130,229.232773 382.670044,210.555069 397.575104,194.862091 
	C398.564514,193.820358 399.884064,192.912598 400.141449,190.989166 
	C398.241394,189.639572 396.313477,190.741730 394.627869,191.354858 
	C380.237183,196.589279 365.663818,201.327637 351.832886,208.050247 
	C345.313019,211.219299 340.196228,215.702148 336.049805,221.487778 
	C315.735077,249.833435 309.349060,281.516846 313.026459,315.783539 
	C316.912231,351.992249 330.626007,384.962891 345.802155,417.494629 
	C364.009186,456.523285 385.925201,493.487213 408.486420,530.092712 
	C409.619568,531.931274 410.594055,533.870911 411.582397,535.794312 
	C412.363922,537.315186 412.132172,538.829834 410.815186,539.858032 
	C409.242706,541.085693 407.996307,539.944885 406.936127,538.837891 
	C402.197998,533.890381 398.262421,528.298828 394.125153,522.864563 
	C372.083893,493.913940 351.952423,463.736267 335.326599,431.314270 
	C322.914093,407.108704 312.193024,382.164154 305.092773,355.877441 
	C295.603271,320.745300 292.660919,285.424561 304.655548,250.121399 
	C306.990387,243.249405 310.157745,236.713257 313.212769,230.130219 
	C312.879883,229.831299 312.546967,229.532364 312.214081,229.233444 
	C306.674194,233.328568 301.000366,237.256790 295.630920,241.564392 
	C289.919189,246.146576 284.598694,251.214310 278.923767,255.845078 
	C268.864563,264.053467 262.659882,274.595032 259.249451,286.988373 
	C255.028809,302.326172 252.160324,317.868347 253.544373,333.820129 
	C255.657379,358.173889 263.301819,381.004791 273.824738,402.909637 
	C292.543213,441.874695 319.445465,475.201263 346.752991,508.234192 
	C362.681427,527.502258 379.476379,546.007751 396.251648,564.531616 
	C398.001526,566.463928 400.192505,568.484314 397.441132,571.546326 
	C394.349792,571.068176 392.264832,568.796448 390.070740,566.937256 
	C358.842957,540.476624 330.114655,511.534149 304.494690,479.598297 
	C281.108978,450.447571 261.466705,419.025116 248.774887,383.665741 
	C239.336975,357.371735 236.087753,330.340271 240.361740,302.565857 
	C240.572662,301.195129 241.320587,299.683075 240.209976,298.182587 
	C238.126953,299.231110 237.119110,301.238647 235.890076,302.927704 
	C227.744553,314.121979 220.689667,325.997345 213.653671,337.917969 
	C203.196152,355.635468 203.147369,374.483948 207.017944,393.598358 
	C212.654541,421.434052 228.105133,444.460327 244.988785,466.492096 
	C269.175323,498.053406 298.850159,524.129883 329.448822,549.180054 
	C346.974701,563.527832 364.271759,578.163086 382.711426,591.387756 
	C387.097961,594.533691 391.933533,597.754944 394.952850,602.814026 
	C392.299042,604.519043 390.674713,602.773865 389.051514,601.974426 
	C366.396881,590.815430 345.612610,576.648254 325.334137,561.746155 
	C299.249329,542.577087 274.392059,521.916687 252.040604,498.432617 
	C232.781113,478.197266 215.199631,456.701691 204.255463,430.575226 
	C199.796463,419.930420 196.765091,408.878937 194.764191,397.522156 
	C194.462616,395.810455 194.458771,393.924133 192.797531,391.897186 
	C189.665512,399.289368 187.822052,406.624878 186.089859,413.977142 
	C181.747330,432.409119 180.583252,450.924133 186.575577,469.181488 
	C193.110535,489.092163 203.724609,506.705841 218.316803,521.815063 
	C238.150101,542.351196 261.405029,558.403687 285.509949,573.437927 
	C318.274902,593.873535 353.522308,609.344421 388.316986,625.743713 
	C390.229248,626.644958 392.496552,627.189819 392.735168,630.210022 
	C389.403931,632.545105 386.037170,630.940674 382.923859,629.849670 
	C364.539490,623.407532 345.999390,617.395996 328.186920,609.390015 
	C302.022644,597.630188 276.157318,585.296875 252.400146,569.077026 
	C231.695892,554.941467 212.508026,539.005615 196.651596,519.394653 
	C190.857010,512.227966 186.403656,504.232025 182.550308,495.885406 
	C181.738754,494.127502 181.233505,492.147919 179.362900,490.711365 
	C177.562149,492.731995 178.162323,494.970551 178.237274,496.977905 
	C180.183472,549.105164 205.376968,586.148926 251.978134,608.503540 
	C287.067627,625.336060 324.139862,636.864563 361.662445,646.953674 
	C370.343994,649.288025 378.986511,651.724304 387.914154,652.982727 
	C389.713837,653.236389 391.484375,653.801819 393.219879,654.371277 
	C394.527039,654.800110 395.713226,655.572937 395.515778,657.215027 
	C395.312317,658.906860 393.924072,659.304871 392.560455,659.284302 
	C388.732483,659.226562 384.861359,659.353394 381.086914,658.831421 
	C337.853424,652.852356 295.575043,643.131958 255.597122,625.151917 
	C236.586929,616.602112 217.960205,607.221802 203.183197,591.853943 
	C200.118240,588.666443 197.973083,584.570557 194.133102,582.187500 
	C192.785294,583.024536 193.140167,584.170837 193.413116,584.991943 
	C198.575226,600.521423 204.087433,615.947327 214.909775,628.625671 
	C228.662430,644.736877 246.799088,653.967224 266.517090,660.548889 
	C285.693176,666.949646 305.523499,670.353027 325.404327,673.596008 
	C348.279419,677.327454 371.281006,679.480042 394.451263,680.036316 
	C397.139923,680.100891 401.806000,678.847229 401.922119,682.688904 
	C402.034393,686.404053 397.231964,685.622498 394.565643,685.942993 
	C374.140961,688.397766 353.609253,687.850342 333.158966,686.778503 
	C309.317139,685.528931 285.856812,681.467651 263.120392,673.870300 
	C253.486938,670.651245 244.364838,666.237244 235.428818,661.453369 
	C235.086990,662.061584 234.733337,662.459351 234.811981,662.583679 
	C243.668701,676.581787 252.836761,690.378052 268.585144,697.636658 
	C281.992126,703.816162 296.195068,707.367859 310.887482,708.637268 
	C341.454773,711.278381 371.761017,708.291870 402.001984,704.078796 
	C405.172577,703.637024 408.517273,702.790039 411.778778,704.800232 
	C411.070679,708.061462 408.358398,708.432983 406.162781,709.217651 
	C390.999939,714.636963 375.208649,717.049866 359.286926,718.728577 
	C338.064117,720.966248 316.828217,723.005188 295.550720,719.268311 
	C291.469421,718.551514 287.393799,717.802246 283.312225,717.086975 
	C283.221497,717.071106 283.090607,717.284607 282.761780,717.596802 
	C284.188385,720.261047 286.815948,721.775574 288.999298,723.724426 
	C295.493652,729.521057 302.763885,734.235046 310.111481,738.829163 
	C313.982086,741.249268 318.257843,742.512939 322.840851,742.817017 
	C342.198975,744.101562 360.957092,740.245972 379.680695,736.181091 
	C393.012115,733.286926 406.447510,730.755859 419.126740,725.419312 
	C420.858582,724.690430 423.304443,723.692688 424.308289,726.302368 
	C425.155579,728.505127 422.937836,729.473328 421.409576,730.362061 
	C412.270813,735.676514 402.258148,738.900513 392.277283,742.096558 
	C375.464355,747.480591 358.609894,752.792175 340.861084,754.274353 
	C339.868256,754.357239 338.854279,754.492249 337.819000,756.016541 
	C341.308716,759.205688 345.852112,760.801208 349.822906,763.272644 
	C358.854553,768.894043 368.393127,769.880066 378.618317,767.344177 
	C388.498627,764.893921 398.253204,762.072510 407.634186,758.150513 
	C416.081116,754.618896 424.340515,750.639893 432.700043,746.897156 
	C434.779541,745.966064 436.890839,744.702209 439.219452,746.326721 
	C439.907318,748.756531 438.085663,749.730164 436.654297,750.716187 
	C423.047333,760.089600 408.892792,768.514160 393.703430,775.100525 
	C391.890900,775.886475 389.852936,776.252991 388.933380,778.314514 
	C394.431091,783.863037 409.005615,786.445618 416.434814,782.939453 
	C426.681519,778.103699 436.712799,772.843994 446.127777,766.488220 
	C447.092712,765.836792 448.087952,765.214722 449.125122,764.689575 
	C450.816040,763.833496 452.669189,761.778992 454.445526,763.828064 
	C456.400604,766.083313 454.102844,767.900879 452.761963,769.392456 
	C447.719879,775.000671 441.570129,779.327454 435.546600,783.788147 
	C433.693481,785.160461 431.612671,786.313965 430.659271,788.593750 
	C435.028687,792.324341 446.545624,793.434265 451.056946,790.454346 
	C456.476044,786.875000 461.804443,783.158020 467.158020,779.480164 
	C468.853180,778.315552 470.598389,776.996887 472.489258,778.901489 
	C474.606781,781.034363 472.403290,782.507446 471.377991,784.047729 
	C469.116852,787.444580 465.638763,789.977783 463.639130,794.908997 
	C484.829376,796.685120 505.289246,796.126221 525.694580,793.469666 
	C525.752991,792.985901 525.811340,792.502136 525.869690,792.018372 
	C519.284180,789.013855 512.522034,786.341858 506.141022,782.952393 
	C454.540771,755.543274 421.512054,713.606506 409.675201,656.220947 
	C401.852112,618.294250 405.761322,581.118408 423.790588,546.420105 
	C446.122955,503.440308 479.920319,474.107605 528.543823,465.392487 
	C575.678040,456.944305 617.875549,468.627960 651.988647,502.851593 
	C680.562927,531.518494 692.207703,566.594727 685.108337,607.076538 
	C677.679504,649.436707 642.990540,683.715271 600.358093,690.958557 
	C559.549927,697.891907 519.427307,678.326599 502.693420,642.696411 
	C490.976990,617.749451 489.342896,592.526855 504.451263,568.186951 
	C527.274170,531.418701 576.530273,527.859009 600.408386,555.129517 
	C618.727905,576.051758 616.994019,604.153809 599.374146,619.291748 
	C585.818726,630.937683 566.099304,630.484253 554.495544,618.324524 
	C545.756409,609.166565 545.052795,595.026611 553.163696,586.631348 
	C556.960571,582.701355 561.620483,580.557129 567.425110,581.695801 
	C567.237854,584.186096 565.571228,583.900696 564.449951,584.168945 
	C558.097595,585.688721 554.917664,590.324768 553.753662,596.127075 
	C552.645935,601.648987 555.368774,606.147888 559.679382,609.573120 
	C566.904480,615.314331 577.458374,615.514038 585.345337,609.971741 
	C600.009277,599.667236 600.510254,581.009766 590.248230,568.558960 
	C572.505859,547.032349 540.751465,548.577271 522.609253,571.445190 
	C504.584412,594.165222 506.446350,622.163879 525.702698,646.790466 
	C550.125366,678.024170 599.206421,679.681213 630.157959,653.464783 
	C663.252258,625.433594 671.243347,576.481262 648.685486,538.137756 
	C628.615234,504.022614 598.178650,487.788300 559.234314,486.048462 
	C500.240662,483.413025 453.251740,525.240234 439.091370,576.690796 
	C424.060028,631.305847 437.599640,679.986755 474.597382,721.981140 
	C501.711304,752.756775 536.635376,770.458374 577.041260,776.399353 
	C606.379700,780.712952 635.177612,777.057190 662.911865,766.137878 
	C664.495422,765.514404 666.011475,763.977661 669.329834,765.891052 
	C603.398682,808.680664 531.874878,824.608276 454.441559,818.792969 
z"/>



</svg>